<svg enable-background="new 0 0 511.945 511.945" height="512" viewBox="0 0 511.945 511.945" width="512" ><g><path d="m346.392 165.542c-7.239-7.24-16.886-11.225-27.164-11.217-20.825.012-38.392 16.708-38.386 38.373.003 10.279 3.99 19.928 11.228 27.164 14.979 14.979 39.325 15 54.274.051 15.003-15.004 15.025-39.394.048-54.371z"/><path d="m511.945.089-15.003.014c-107.34.102-212.507 45.281-288.567 123.971l-149.082 149.081 179.488 179.486 149.073-149.072c37.509-36.152 68.594-80.732 89.903-128.924 40.388-91.346 33.309-165.178 34.188-174.556zm-241.051 240.951c-26.685-26.688-26.678-69.999-.049-96.625 26.694-26.696 70.008-26.764 96.723-.049 26.653 26.652 26.632 70.045-.047 96.725-26.624 26.623-69.97 26.599-96.627-.051z"/><path d="m-4.88 446.723h110.233v29.949h-110.233z" transform="matrix(.707 -.707 .707 .707 -311.748 170.742)"/><path d="m98.599 464.477h39.489v29.948h-39.489z" transform="matrix(.707 -.707 .707 .707 -304.354 224.098)"/><path d="m12.775 378.699h39.252v29.946h-39.252z" transform="matrix(.707 -.707 .707 .707 -268.884 138.222)"/><path d="m389.634 359.466-7.662-7.662-122.016 122.017 38.035 38.036 67.604-67.604z"/><path d="m67.61 146.251-67.61 67.611 38.115 38.118 122.019-122.02-7.662-7.662z"/><path d="m34.858 334.036 143.038 143.039 29.315-13.65-158.704-158.701z"/></g></svg>