<svg x="0px" y="0px" viewBox="0 0 512 512" style="enable-background:new 0 0 512 512;">
<g>
	<g>
		<path d="M467,0H45C20.186,0,0,20.186,0,45v76h512V45C512,20.186,491.814,0,467,0z M75,90c-8.284,0-15-6.716-15-15
			c0-8.286,6.716-15,15-15s15,6.714,15,15C90,83.284,83.284,90,75,90z M135,90c-8.284,0-15-6.716-15-15c0-8.286,6.716-15,15-15
			s15,6.714,15,15C150,83.284,143.284,90,135,90z M195,90c-8.284,0-15-6.716-15-15c0-8.286,6.716-15,15-15s15,6.714,15,15
			C210,83.284,203.284,90,195,90z"/>
	</g>
</g>
<g>
	<g>
		<path d="M0,151v316c0,24.814,20.186,45,45,45h422c24.814,0,45-20.186,45-45V151H0z M60,197c0-8.291,6.709-15,15-15h150
			c8.291,0,15,6.709,15,15v120c0,8.291-6.709,15-15,15H75c-8.291,0-15-6.709-15-15V197z M437,452H75c-8.291,0-15-6.709-15-15
			c0-8.291,6.709-15,15-15h362c8.291,0,15,6.709,15,15C452,445.291,445.291,452,437,452z M437,392H75c-8.291,0-15-6.709-15-15
			c0-8.291,6.709-15,15-15h362c8.291,0,15,6.709,15,15C452,385.291,445.291,392,437,392z M437,332H285c-8.291,0-15-6.709-15-15
			c0-8.291,6.709-15,15-15h152c8.291,0,15,6.709,15,15C452,325.291,445.291,332,437,332z M437,272H285c-8.291,0-15-6.709-15-15
			c0-8.291,6.709-15,15-15h152c8.291,0,15,6.709,15,15S445.291,272,437,272z"/>
	</g>
</g>
<g>
	<g>
		<rect x="90" y="212" width="120" height="90"/>
	</g>
</g>
</svg>
